<svg width="62" height="62" viewBox="0 0 62 62" fill="none" xmlns="http://www.w3.org/2000/svg">
<circle cx="31" cy="31" r="30.5" fill="white" stroke="#E7E7E7"/>
<g clip-path="url(#clip0)">
<path d="M31.4189 31.393C31.4427 31.393 31.4665 31.393 31.4951 31.393C31.5046 31.393 31.5141 31.393 31.5236 31.393C31.5379 31.393 31.557 31.393 31.5713 31.393C32.9668 31.3692 34.0956 30.8786 34.9291 29.9404C36.7628 27.8733 36.458 24.3297 36.4247 23.9915C36.3056 21.4529 35.1053 20.2384 34.1146 19.6716C33.3764 19.2477 32.5143 19.0191 31.5522 19H31.5189C31.5141 19 31.5046 19 31.4998 19H31.4712C30.9426 19 29.9043 19.0857 28.9088 19.6525C27.9086 20.2193 26.6893 21.4338 26.5702 23.9915C26.5369 24.3297 26.2321 27.8733 28.0658 29.9404C28.8945 30.8786 30.0233 31.3692 31.4189 31.393ZM27.8419 24.1106C27.8419 24.0963 27.8467 24.082 27.8467 24.0725C28.0039 20.6575 30.4282 20.2907 31.4665 20.2907H31.4855C31.4951 20.2907 31.5093 20.2907 31.5236 20.2907C32.8096 20.3193 34.9958 20.8432 35.1434 24.0725C35.1434 24.0868 35.1434 24.1011 35.1482 24.1106C35.153 24.1439 35.4864 27.3827 33.9718 29.0878C33.3716 29.7641 32.5715 30.0975 31.5189 30.1071C31.5093 30.1071 31.5046 30.1071 31.4951 30.1071C31.4855 30.1071 31.4808 30.1071 31.4712 30.1071C30.4234 30.0975 29.6185 29.7641 29.0231 29.0878C27.5133 27.3922 27.8372 24.1392 27.8419 24.1106Z" fill="black"/>
<path d="M41.2812 37.2706C41.2812 37.2658 41.2812 37.2611 41.2812 37.2563C41.2812 37.2182 41.2765 37.1801 41.2765 37.1372C41.2479 36.1942 41.186 33.989 39.1189 33.2841C39.1046 33.2793 39.0855 33.2745 39.0713 33.2698C36.9232 32.722 35.1371 31.4837 35.1181 31.4694C34.8275 31.2646 34.4274 31.336 34.2226 31.6266C34.0178 31.9171 34.0893 32.3172 34.3798 32.522C34.4608 32.5791 36.3564 33.8985 38.7283 34.5081C39.8381 34.9034 39.9619 36.0894 39.9953 37.1753C39.9953 37.2182 39.9953 37.2563 40 37.2944C40.0048 37.7231 39.9762 38.3851 39.9 38.7661C39.1284 39.2043 36.104 40.7189 31.503 40.7189C26.9211 40.7189 23.8776 39.1996 23.1013 38.7614C23.0251 38.3803 22.9917 37.7183 23.0013 37.2896C23.0013 37.2515 23.006 37.2134 23.006 37.1706C23.0394 36.0846 23.1632 34.8987 24.273 34.5034C26.6449 33.8937 28.5405 32.5696 28.6215 32.5172C28.912 32.3124 28.9835 31.9123 28.7787 31.6218C28.5738 31.3313 28.1738 31.2598 27.8832 31.4646C27.8642 31.4789 26.0876 32.7173 23.93 33.265C23.911 33.2698 23.8967 33.2745 23.8824 33.2793C21.8153 33.989 21.7534 36.1942 21.7248 37.1325C21.7248 37.1753 21.7248 37.2134 21.72 37.2515C21.72 37.2563 21.72 37.2611 21.72 37.2658C21.7153 37.5135 21.7105 38.7852 21.963 39.4234C22.0106 39.5473 22.0963 39.652 22.2106 39.7235C22.3535 39.8187 25.778 42.0001 31.5078 42.0001C37.2375 42.0001 40.6621 39.814 40.8049 39.7235C40.9145 39.652 41.005 39.5473 41.0526 39.4234C41.2908 38.79 41.286 37.5183 41.2812 37.2706Z" fill="black"/>
</g>
<defs>
<clipPath id="clip0">
<rect width="23" height="23" fill="white" transform="translate(20 19)"/>
</clipPath>
</defs>
</svg>
