<svg width="29" height="29" viewBox="0 0 29 29" fill="none" xmlns="http://www.w3.org/2000/svg">
<circle cx="14.5" cy="14.5" r="14.5" fill="#F3F5F9"/>
<path d="M12.8036 19H16.2756V18.44L15.1696 18.195L15.1556 15.311L15.2046 12.273L15.0436 12H14.7146L12.7686 12.238V12.896L13.9446 13.106L13.9936 15.311L13.9796 18.195L12.8036 18.44V19ZM13.6576 9.641C13.6576 9.89767 13.737 10.1053 13.8956 10.264C14.059 10.4227 14.2736 10.502 14.5396 10.502C14.8243 10.502 15.0413 10.4273 15.1906 10.278C15.3446 10.1287 15.4216 9.91633 15.4216 9.641C15.4216 9.38433 15.34 9.17667 15.1766 9.018C15.018 8.85933 14.8056 8.78 14.5396 8.78C14.255 8.78 14.0356 8.85467 13.8816 9.004C13.7323 9.15333 13.6576 9.36567 13.6576 9.641Z" fill="black"/>
</svg>
