<svg width="28" height="28" viewBox="0 0 28 28" fill="none" xmlns="http://www.w3.org/2000/svg">
<circle cx="14" cy="14" r="14" fill="url(#paint0_linear)"/>
<path d="M20.9579 11.114C20.9238 10.3688 20.8055 9.85999 20.6325 9.41479C20.4568 8.94771 20.1812 8.52463 19.8251 8.17493C19.4755 7.81882 19.0523 7.54314 18.5852 7.36732C18.1399 7.1944 17.6312 7.07616 16.886 7.0423C16.1395 7.00812 15.901 7 14 7C12.099 7 11.8605 7.00812 11.114 7.04208C10.3688 7.07616 9.86009 7.1945 9.41479 7.36754C8.94771 7.54324 8.52463 7.81882 8.17493 8.17493C7.81882 8.52452 7.54314 8.9476 7.36732 9.41469C7.1944 9.85999 7.07616 10.3688 7.0423 11.1138C7.00812 11.8605 7 12.0989 7 13.9999C7 15.901 7.00812 16.1395 7.0423 16.886C7.07626 17.6311 7.19461 18.1399 7.36765 18.5852C7.54335 19.0522 7.81892 19.4754 8.17503 19.825C8.52463 20.1811 8.94781 20.4566 9.4149 20.6324C9.86009 20.8055 10.3689 20.9237 11.1141 20.9578C11.8607 20.9919 12.0991 20.9999 14.0001 20.9999C15.9011 20.9999 16.1396 20.9919 16.8862 20.9578C17.6313 20.9237 18.14 20.8055 18.5853 20.6324C19.5256 20.2688 20.2689 19.5255 20.6325 18.5852C20.8056 18.1399 20.9238 17.6311 20.9579 16.886C20.9919 16.1394 21 15.901 21 14C21 12.0989 20.9919 11.8605 20.9579 11.114ZM19.6979 16.8287C19.6668 17.5112 19.5527 17.8819 19.4569 18.1285C19.2214 18.739 18.7389 19.2215 18.1284 19.457C17.8817 19.5528 17.5111 19.6669 16.8286 19.698C16.0906 19.7317 15.8692 19.7388 14 19.7388C12.1307 19.7388 11.9094 19.7317 11.1713 19.698C10.4889 19.6669 10.1183 19.5528 9.87152 19.457C9.56754 19.3447 9.2925 19.1658 9.0667 18.9333C8.83417 18.7075 8.65526 18.4326 8.543 18.1285C8.44719 17.8819 8.33311 17.5112 8.30203 16.8287C8.26839 16.0906 8.26123 15.8692 8.26123 14.0001C8.26123 12.1309 8.26839 11.9096 8.30203 11.1714C8.33322 10.4889 8.44719 10.1183 8.543 9.87163C8.65526 9.56754 8.83427 9.2925 9.0667 9.0667C9.2925 8.83417 9.56754 8.65526 9.87163 8.54311C10.1183 8.44719 10.4889 8.33322 11.1714 8.30203C11.9095 8.26839 12.1309 8.26123 14 8.26123H13.9999C15.869 8.26123 16.0904 8.26839 16.8286 8.30214C17.5111 8.33322 17.8816 8.4473 18.1284 8.54311C18.4324 8.65536 18.7074 8.83427 18.9332 9.0667C19.1657 9.2925 19.3446 9.56754 19.4568 9.87163C19.5527 10.1183 19.6668 10.4889 19.6979 11.1714C19.7315 11.9095 19.7387 12.1309 19.7387 14C19.7387 15.8692 19.7316 16.0905 19.6979 16.8287Z" fill="white"/>
<path d="M14.0008 10.4053C12.0156 10.4053 10.4062 12.0147 10.4062 13.9999C10.4062 15.9851 12.0156 17.5944 14.0008 17.5944C15.9861 17.5944 17.5954 15.9851 17.5954 13.9999C17.5954 12.0147 15.9861 10.4053 14.0008 10.4053ZM14.0008 16.3332C12.7122 16.3331 11.6675 15.2885 11.6676 13.9998C11.6676 12.7112 12.7122 11.6665 14.0009 11.6665C15.2896 11.6666 16.3342 12.7112 16.3342 13.9998C16.3342 15.2885 15.2895 16.3332 14.0008 16.3332Z" fill="white"/>
<path d="M18.5785 10.2639C18.5785 10.7278 18.2024 11.1039 17.7385 11.1039C17.2745 11.1039 16.8984 10.7278 16.8984 10.2639C16.8984 9.79991 17.2745 9.42383 17.7385 9.42383C18.2024 9.42383 18.5785 9.79991 18.5785 10.2639Z" fill="white"/>
<defs>
<linearGradient id="paint0_linear" x1="21" y1="-5.81145e-07" x2="8" y2="28" gradientUnits="userSpaceOnUse">
<stop stop-color="#C42E91"/>
<stop offset="0.453125" stop-color="#E24163"/>
<stop offset="1" stop-color="#EF8930"/>
</linearGradient>
</defs>
</svg>
